<?xml version="1.0" encoding="utf-8"?>
<!-- Generator: Adobe Illustrator 23.0.1, SVG Export Plug-In . SVG Version: 6.00 Build 0)  -->
<svg version="1.1" id="图层_1" xmlns="http://www.w3.org/2000/svg" xmlns:xlink="http://www.w3.org/1999/xlink" x="0px" y="0px"
	 viewBox="0 0 180 180" style="enable-background:new 0 0 180 180;" xml:space="preserve">
<style type="text/css">
	.st0{fill:url(#SVGID_1_);}
</style>
<linearGradient id="SVGID_1_" gradientUnits="userSpaceOnUse" x1="1.3587" y1="90" x2="178.0356" y2="90">
	<stop  offset="0" style="stop-color:#FFBB00"/>
	<stop  offset="1" style="stop-color:#FF5A00"/>
</linearGradient>
<path class="st0" d="M90.3,0c0.5,0,0.9,0,1.4,0c0.4,0.1,0.9,0.2,1.3,0.2c6.7,0.5,13.3,1.5,19.7,3.3c13.2,3.7,24.9,10,35.1,19.1
	c7.1,6.4,13.1,13.7,17.8,22.1c5.7,10,9.6,20.7,11.2,32.2c0.5,3.3,0.8,6.7,1.2,10c0,2.2,0,4.4,0,6.6c-0.2,1.8-0.4,3.7-0.6,5.5
	c-0.7,7.2-2.3,14.3-4.9,21.1c-2.5,6.6-5.8,12.9-10,18.6c-0.8,1.1-0.7,1.7,0.3,2.6c3.5,3.2,6.9,6.4,10.2,9.7c1.6,1.5,3,3.2,4.5,4.8
	c-7.1,7.4-14.3,14.9-21.5,22.4c-0.5-0.4-0.9-0.8-1.2-1.1c-4.6-4.6-9.3-9.1-13.9-13.7c-0.7-0.7-1.3-0.8-2.1-0.3
	c-1.4,0.9-2.8,1.7-4.3,2.5c-11.9,6.7-24.6,11.3-38.3,12.8c-16,1.7-31.3-1-46-7.6c-6.4-2.9-12.4-6.4-18.2-10.4
	c-0.4-0.2-1.1-0.5-1.3-0.3c-1.1,1-2.3,1.8-2,3.7c0.8,6.8-2.8,12.9-8.8,15.2c-0.9,0.4-1.9,0.6-2.9,0.9c-1.2,0-2.4,0-3.6,0
	c-0.6-0.2-1.2-0.4-1.8-0.6c-3.2-1-6.4-2.1-7.9-5.5c-1-2.2-1.7-4.4-2.5-6.7c0-1.2,0-2.4,0-3.6c0.1-0.3,0.3-0.6,0.3-0.9
	c1.3-5.2,4.6-8.4,9.5-10.1c1.6-0.5,3.2-0.7,4.8-1.1c2.1-0.4,2.5-1.5,1.2-3c-1.2-1.5-2.5-3-3.7-4.5c-2.2-2.7-4.4-5.4-6.7-8.2
	c4.5-4.7,9-9.2,13.5-13.9c0.3,0.3,0.6,0.5,0.8,0.7c7.1,6.6,14.9,12.2,23.5,16.7c9,4.7,18.6,7.9,28.7,9c12.7,1.4,24.9-0.5,36.7-5.5
	c2.1-0.9,4.2-2,6.7-3.2c-0.7-0.5-1.1-0.8-1.4-1.1c-5.9-5.7-11.8-11.4-17.7-17.1C85,109.3,72.3,97.1,59.7,84.8
	c-0.8-0.8-1.3-0.7-2,0.1c-4.6,4.8-9.3,9.6-13.9,14.5c-0.3,0.3-0.7,0.7-0.8,0.8C34.4,91.5,25.9,83,17.3,74.5
	c4.8-5.1,9.6-10.2,14.5-15.3c9.2-9.7,18.5-19.5,27.6-29.3c1.2-1.3,2.3-1.8,4.2-1.4c6.5,1.4,12.9,1.1,18.9-2c2.3-1.2,4.4-2.8,6.7-4.4
	c4.4,4.6,9,9.2,13.7,14c-0.4,0.5-0.7,0.9-1,1.2c-6.6,7.1-13.3,14.2-19.9,21.3c-0.9,0.9-1,1.4,0,2.4C99.5,78.5,117,96,134.6,113.4
	c1.7,1.7,3.2,3.4,4.8,5.2c0.5-0.4,0.6-0.5,0.7-0.6c0.2-0.3,0.3-0.6,0.5-0.8c3.6-6.6,5.6-13.6,6.5-21c1.5-11.6,0.2-22.9-3-34.1
	c-3.3-11.7-8.6-22.5-15.8-32.2C119.7,18.2,109.1,9,96,2.7C94.1,1.8,92.2,0.9,90.3,0z"/>
</svg>
